<?xml version="1.0" encoding="UTF-8"?>
<svg width="70px" height="70px" viewBox="0 0 237 237" version="1.1" xmlns="http://www.w3.org/2000/svg" xmlns:xlink="http://www.w3.org/1999/xlink">
    <title>Group</title>
    <g id="Page-1" stroke="none" stroke-width="1" fill="none" fill-rule="evenodd">
        <g id="Group">
            <rect id="Rectangle" fill="#FFFFFF" x="0" y="0" width="237" height="237" rx="8"></rect>
            <g id="house-2-svgrepo-com" transform="translate(39.000000, 38.000000)" stroke-linejoin="round" stroke-width="12">
                <line x1="0" y1="155.993985" x2="160" y2="155.993985" id="Path" stroke="#985183" stroke-linecap="round"></line>
                <path d="M7.5996,155.993985 L7.9996,59.6091832 C7.9996,54.7218449 10.3196,50.075268 14.1596,47.0306966 L70.16,3.36505263 C75.92,-1.12168421 84,-1.12168421 89.84,3.36505263 L145.84,46.9504962 C149.76,49.9950676 152,54.6417245 152,59.6091832 L152,155.993985" id="Path" stroke="#985183"></path>
                <path d="M108,67.8616543 L52,67.8616543 C45.36,67.8616543 40,73.2297144 40,79.8796994 L40,155.993985 L120,155.993985 L120,79.8796994 C120,73.2297144 114.64,67.8616543 108,67.8616543 Z" id="Path" stroke="#FAA63E" stroke-linecap="round"></path>
                <line x1="64" y1="109.924812" x2="64" y2="121.942857" id="Path" stroke="#F76126" stroke-linecap="round"></line>
                <line x1="68" y1="39.8195491" x2="92" y2="39.8195491" id="Path" stroke="#985183" stroke-linecap="round"></line>
            </g>
            <g id="complaint-svgrepo-com" transform="translate(150.000000, 24.000000)" fill="#FA6400" fill-rule="nonzero">
                <path d="M69,5.88641141 L69,44.5412213 C68.988412,47.7873563 66.3751078,50.4159769 63.1478873,50.4276327 L41.1021127,50.4276327 L35.7147887,59.1138084 C35.4893297,59.650904 34.9660569,60 34.3864437,60 C33.8068304,60 33.2835576,59.650904 33.0580986,59.1138084 L27.6707746,50.4276327 L5.85739437,50.4276327 C2.62811143,50.4188905 0.0116044719,47.7894216 0,44.5412213 L0,5.88641141 C0.0115879773,2.64027644 2.62489218,0.0116558934 5.85211268,0 L63.1478873,0 C66.3751078,0.0116558934 68.988412,2.64027644 69,5.88641141 L69,5.88641141 Z M38.228877,38.0491683 C38.2310102,36.5316589 37.3238555,35.1623778 35.9306415,34.5801621 C34.5374276,33.9979464 32.9327072,34.3175301 31.8651615,35.3898116 C30.7976158,36.4620931 30.47762,38.075764 31.0544679,39.4779673 C31.6313158,40.8801706 32.9913312,41.7945835 34.5,41.7945835 C36.557339,41.7945835 38.2259592,40.1185631 38.228877,38.0491683 L38.228877,38.0491683 Z M31.5739437,28.3270267 C31.5739437,29.9525144 32.8839837,31.2702324 34.5,31.2702324 C36.1160163,31.2702324 37.4260563,29.9525144 37.4260563,28.3270267 L37.4260563,11.140618 C37.4260563,9.51513036 36.1160163,8.19741228 34.5,8.19741228 C32.8839837,8.19741228 31.5739437,9.51513036 31.5739437,11.140618 L31.5739437,28.3270267 Z" id="Shape"></path>
            </g>
        </g>
    </g>
</svg>